<?xml version="1.0" standalone="no"?>
<!DOCTYPE svg PUBLIC "-//W3C//DTD SVG 20010904//EN"
 "http://www.w3.org/TR/2001/REC-SVG-20010904/DTD/svg10.dtd">
<svg version="1.0" xmlns="http://www.w3.org/2000/svg"
 width="256.000000pt" height="256.000000pt" viewBox="0 0 256.000000 256.000000"
 preserveAspectRatio="xMidYMid meet">

<g transform="translate(0.000000,256.000000) scale(0.100000,-0.100000)"
fill="#000000" stroke="none">
<path d="M738 2375 c-82 -17 -137 -40 -227 -99 -80 -51 -159 -127 -195 -185
-18 -28 22 4 53 43 17 21 31 35 31 30 0 -5 4 -4 8 2 13 20 164 106 221 126
190 67 363 62 528 -16 88 -42 146 -81 197 -133 24 -23 34 -30 27 -16 -10 20
-106 107 -161 145 -14 10 -17 15 -7 12 9 -4 17 -1 17 5 0 6 -5 11 -10 11 -6 0
-23 9 -38 20 -84 60 -289 86 -444 55z"/>
<path d="M1235 2270 c3 -5 11 -10 16 -10 6 0 7 5 4 10 -3 6 -11 10 -16 10 -6
0 -7 -4 -4 -10z"/>
<path d="M962 1909 c-2 -29 -7 -38 -24 -43 -24 -6 -48 15 -48 41 0 17 -2 17
-56 -13 -37 -21 -48 -23 -55 -13 -5 9 -9 -8 -9 -43 l0 -58 -185 0 -185 0 0
-62 c0 -34 3 -58 7 -54 8 8 8 10 12 66 3 32 4 33 10 10 l8 -25 4 25 c4 24 8
25 82 28 73 3 78 1 86 -20 l9 -23 9 24 10 25 6 -24 c8 -30 -1 -70 -16 -70 -30
0 10 -14 60 -21 31 -4 60 -14 64 -21 22 -34 11 -37 -148 -41 -140 -2 -134 -3
56 -4 163 -2 216 -5 223 -15 7 -9 8 -6 5 9 -3 13 -1 26 4 29 5 3 9 14 9 25 0
17 7 19 70 19 58 0 71 -3 80 -19 14 -28 13 -39 -7 -44 -10 -3 52 -4 137 -4 85
1 125 2 88 4 -68 4 -68 4 -68 33 0 30 1 30 55 30 41 0 56 -4 64 -17 7 -13 10
4 13 60 l3 77 -182 0 -182 0 -4 83 c-1 45 -4 66 -5 46z m-292 -159 c0 -5 -4
-10 -10 -10 -5 0 -10 5 -10 10 0 6 5 10 10 10 6 0 10 -4 10 -10z m120 -54 c0
5 23 9 50 9 40 0 50 -3 48 -15 -2 -10 -21 -17 -58 -22 -62 -7 -70 -5 -70 24 0
17 2 18 15 8 8 -7 15 -9 15 -4z m306 -1 c12 16 14 17 20 2 4 -12 18 -17 47
-17 60 0 41 -7 -35 -13 l-68 -6 0 27 c1 25 2 25 12 8 10 -19 11 -19 24 -1z m9
-85 c3 -5 -1 -10 -10 -10 -9 0 -13 5 -10 10 3 6 8 10 10 10 2 0 7 -4 10 -10z"/>
<path d="M408 1593 c7 -3 16 -2 19 1 4 3 -2 6 -13 5 -11 0 -14 -3 -6 -6z"/>
<path d="M988 1593 c6 -2 18 -2 25 0 6 3 1 5 -13 5 -14 0 -19 -2 -12 -5z"/>
<path d="M771 1543 c0 -21 3 -31 6 -23 3 8 11 18 17 22 7 5 6 8 -3 8 -11 0
-11 3 -1 15 10 12 10 15 -4 15 -12 0 -16 -9 -15 -37z"/>
<path d="M962 1480 c0 -19 2 -27 5 -17 2 9 2 25 0 35 -3 9 -5 1 -5 -18z"/>
<path d="M1511 1293 c-10 -26 -10 -27 4 -9 8 11 15 23 15 28 0 15 -7 8 -19
-19z"/>
<path d="M1369 1233 l-24 -28 28 24 c15 14 27 26 27 28 0 8 -8 1 -31 -24z"/>
<path d="M1425 1189 c-117 -119 -230 -182 -384 -215 -124 -26 -294 -14 -417
29 -37 14 -128 53 -146 64 -5 2 -8 0 -8 -6 0 -15 89 -66 156 -89 135 -47 301
-53 439 -17 93 24 237 99 299 156 49 45 143 149 134 149 -1 0 -34 -32 -73 -71z"/>
<path d="M1573 1143 c-25 -5 -144 -123 -156 -155 -4 -12 -4 -32 0 -45 11 -32
800 -820 829 -827 36 -9 66 8 130 74 70 73 78 91 60 133 -17 39 -793 813 -821
820 -11 2 -30 2 -42 0z m170 -210 c23 -15 45 -32 49 -38 4 -5 9 -7 13 -4 6 7
64 -45 198 -176 114 -111 178 -185 171 -196 -3 -5 3 -6 12 -2 11 4 15 2 12 -7
-2 -8 3 -22 11 -31 41 -46 60 -75 40 -64 -11 6 -12 5 -1 -6 15 -16 16 -39 1
-39 -22 0 -102 72 -294 262 -181 179 -263 271 -278 311 -9 25 16 22 66 -10z"/>
</g>
</svg>
